# xmcd
# 
# Track frame offsets:
#     150
#     42092
#     62521
#     89641
#     135270
#     167942
#     203147
#     251169
#     293923
#     333794
# 
# Disc length: 4778
# 
# Revision: 1
# Processed by: cddbd v1.5.2PL0 Copyright (c) Steve Scherf et al.
# Submitted via: BonkEnc v1.0.8
# 
DISCID=8d12a80a
DTITLE=Moncef Genoud featuring Bob Berg - The Meeting
DYEAR=1999
DGENRE=Contemporary Jazz
TTITLE0=Waiting For Birth
TTITLE1=It's Alright With Me
TTITLE2=I Mean You
TTITLE3=It's You
TTITLE4=Favourite Godfather
TTITLE5=Three Faces
TTITLE6=You Don't Know What Love Is
TTITLE7=Foncef
TTITLE8=Easy Living
TTITLE9=Movie
EXTD=YEAR: 1999
EXTT0=
EXTT1=
EXTT2=
EXTT3=
EXTT4=
EXTT5=
EXTT6=
EXTT7=
EXTT8=
EXTT9=
PLAYORDER=
